<?xml version="1.0" encoding="UTF-8" standalone="no"?>
<svg
   xmlns:dc="http://purl.org/dc/elements/1.1/"
   xmlns:cc="http://creativecommons.org/ns#"
   xmlns:rdf="http://www.w3.org/1999/02/22-rdf-syntax-ns#"
   xmlns:svg="http://www.w3.org/2000/svg"
   xmlns="http://www.w3.org/2000/svg"
   viewBox="0 0 115.64773 115.65107"
   height="115.65107"
   width="115.64773"
   xml:space="preserve"
   id="svg2"
   version="1.1"><metadata
     id="metadata8"><rdf:RDF><cc:Work
         rdf:about=""><dc:format>image/svg+xml</dc:format><dc:type
           rdf:resource="http://purl.org/dc/dcmitype/StillImage" /></cc:Work></rdf:RDF></metadata><defs
     id="defs6"><clipPath
       id="clipPath18"
       clipPathUnits="userSpaceOnUse"><path
         id="path16"
         d="M 0,86.738 H 86.736 V 0 H 0 Z" /></clipPath></defs><g
     transform="matrix(1.3333333,0,0,-1.3333333,0,115.65107)"
     id="g10"><g
       id="g12"><g
         clip-path="url(#clipPath18)"
         id="g14"><g
           transform="translate(86.7358,43.3691)"
           id="g20"><path
             id="path22"
             style="fill:#e3515e;fill-opacity:1;fill-rule:nonzero;stroke:none"
             d="m 0,0 c 0,23.955 -19.419,43.369 -43.366,43.369 -23.955,0 -43.369,-19.414 -43.369,-43.369 0,-23.945 19.414,-43.369 43.369,-43.369 C -19.419,-43.369 0,-23.945 0,0" /></g><g
           transform="translate(48.4282,43.3691)"
           id="g24"><path
             id="path26"
             style="fill:#ffffff;fill-opacity:1;fill-rule:nonzero;stroke:none"
             d="m 0,0 12.683,14.717 c 1.383,1.605 1.191,4.033 -0.404,5.414 -1.608,1.383 -4.025,1.197 -5.412,-0.404 L -5.062,5.879 -16.988,19.727 c -1.377,1.611 -3.809,1.787 -5.412,0.404 -1.607,-1.381 -1.783,-3.809 -0.403,-5.414 L -10.125,0 -22.803,-14.717 c -1.38,-1.607 -1.204,-4.029 0.403,-5.41 0.72,-0.625 1.619,-0.928 2.507,-0.928 1.075,0 2.143,0.45 2.905,1.328 L -5.062,-5.879 6.867,-19.727 c 0.757,-0.878 1.831,-1.328 2.901,-1.328 0.888,0 1.787,0.303 2.511,0.928 1.595,1.381 1.787,3.803 0.404,5.41 z" /></g></g></g></g></svg>