<?xml version="1.0" encoding="UTF-8" standalone="no"?>
<svg
   xmlns:dc="http://purl.org/dc/elements/1.1/"
   xmlns:cc="http://creativecommons.org/ns#"
   xmlns:rdf="http://www.w3.org/1999/02/22-rdf-syntax-ns#"
   xmlns:svg="http://www.w3.org/2000/svg"
   xmlns="http://www.w3.org/2000/svg"
   viewBox="0 0 127.168 132.68159"
   height="132.68159"
   width="127.168"
   xml:space="preserve"
   id="svg2"
   version="1.1"><metadata
     id="metadata8"><rdf:RDF><cc:Work
         rdf:about=""><dc:format>image/svg+xml</dc:format><dc:type
           rdf:resource="http://purl.org/dc/dcmitype/StillImage" /></cc:Work></rdf:RDF></metadata><defs
     id="defs6"><clipPath
       id="clipPath18"
       clipPathUnits="userSpaceOnUse"><path
         id="path16"
         d="M 0,99.511 H 95.376 V 0 H 0 Z" /></clipPath></defs><g
     transform="matrix(1.3333333,0,0,-1.3333333,0,132.6816)"
     id="g10"><g
       id="g12"><g
         clip-path="url(#clipPath18)"
         id="g14"><g
           transform="translate(95.376,51.8203)"
           id="g20"><path
             id="path22"
             style="fill:#00a794;fill-opacity:1;fill-rule:nonzero;stroke:none"
             d="m 0,0 c 0,-26.342 -21.35,-47.689 -47.688,-47.689 -1.773,0 -3.521,0.091 -5.237,0.283 -5.395,0.59 -10.52,2.08 -15.22,4.316 l -16.857,-8.73 2.914,18.789 c -8.232,8.568 -13.288,20.205 -13.288,33.031 0,26.338 21.345,47.691 47.688,47.691 6.543,0 12.776,-1.318 18.45,-3.707 C -12.063,36.773 0,19.795 0,0" /></g><g
           transform="translate(95.376,51.8203)"
           id="g24"><path
             id="path26"
             style="fill:#55b5a9;fill-opacity:1;fill-rule:nonzero;stroke:none"
             d="m 0,0 c 0,-26.342 -21.35,-47.689 -47.688,-47.689 -1.773,0 -3.521,0.091 -5.237,0.283 l 23.687,91.39 C -12.063,36.773 0,19.795 0,0" /></g><g
           transform="translate(47.6885,85.2246)"
           id="g28"><path
             id="path30"
             style="fill:#e55035;fill-opacity:1;fill-rule:nonzero;stroke:none"
             d="m 0,0 c 4.631,0 8.389,-3.75 8.389,-8.389 0,-4.629 -3.758,-8.388 -8.389,-8.388 -4.632,0 -8.389,3.759 -8.389,8.388 C -8.389,-3.75 -4.632,0 0,0" /></g><g
           transform="translate(59.1504,27.25)"
           id="g32"><path
             id="path34"
             style="fill:#e55035;fill-opacity:1;fill-rule:nonzero;stroke:none"
             d="M 0,0 V -6.494 H -22.93 V 0 h 4.185 V 27.496 H -22.93 V 33.99 H -4.18 V 0 Z" /></g><g
           transform="translate(59.1504,27.25)"
           id="g36"><path
             id="path38"
             style="fill:#e97663;fill-opacity:1;fill-rule:nonzero;stroke:none"
             d="M 0,0 V -6.494 H -12.466 L -4.18,25.484 V 0 Z" /></g></g></g></g></svg>