<?xml version="1.0" encoding="utf-8"?>
<!-- Generator: Adobe Illustrator 16.0.0, SVG Export Plug-In . SVG Version: 6.00 Build 0)  -->
<!DOCTYPE svg PUBLIC "-//W3C//DTD SVG 1.1//EN" "http://www.w3.org/Graphics/SVG/1.1/DTD/svg11.dtd">
<svg version="1.1" id="Layer_1" xmlns="http://www.w3.org/2000/svg" xmlns:xlink="http://www.w3.org/1999/xlink" x="0px" y="0px"
	 width="119.25px" height="118.225px" viewBox="0 0 119.25 118.225" enable-background="new 0 0 119.25 118.225"
	 xml:space="preserve">
<g>
	<path d="M60.327,26.586c-17.528,0-31.782,14.145-31.782,31.536c0,6.897,2.247,13.289,6.053,18.49l-3.969,11.709L42.84,84.44
		c5.017,3.292,11.028,5.214,17.486,5.214c17.521,0,31.778-14.145,31.778-31.532C92.105,40.73,77.847,26.586,60.327,26.586z
		 M78.871,71.131c-0.772,2.147-4.558,4.22-6.253,4.37c-1.7,0.154-1.7,1.383-11.121-2.298c-9.421-3.681-15.365-13.268-15.829-13.882
		c-0.463-0.609-3.781-4.983-3.781-9.508c0-4.521,2.393-6.747,3.241-7.665c0.848-0.92,1.851-1.15,2.469-1.15
		c0.619,0,1.237,0.076,1.776,0.076c0.543,0,1.316-0.305,2.084,1.532c0.773,1.843,2.627,6.368,2.857,6.827
		c0.234,0.459,0.388,0.994,0.079,1.608c-0.309,0.613-0.463,0.998-0.927,1.537c-0.463,0.535-0.973,1.194-1.392,1.608
		c-0.459,0.459-0.943,0.956-0.405,1.875c0.543,0.92,2.403,3.928,5.156,6.367c3.538,3.129,6.525,4.103,7.453,4.562
		c0.927,0.46,1.466,0.385,2.005-0.229c0.543-0.614,2.318-2.687,2.937-3.605c0.614-0.919,1.236-0.765,2.084-0.459
		c0.848,0.305,5.406,2.531,6.333,2.99c0.923,0.46,1.541,0.689,1.775,1.074C79.644,67.142,79.644,68.984,78.871,71.131z"/>
	<path d="M59.625,0.716c-32.251,0-58.396,26.146-58.396,58.396c0,32.252,26.145,58.396,58.396,58.396s58.396-26.145,58.396-58.396
		C118.021,26.861,91.876,0.716,59.625,0.716z M60.327,95.628c-6.629,0-12.858-1.691-18.273-4.666l-20.929,6.65l6.822-20.123
		c-3.442-5.652-5.422-12.281-5.422-19.367c0-20.716,16.923-37.51,37.802-37.51c20.875,0,37.798,16.794,37.798,37.51
		C98.125,78.834,81.202,95.628,60.327,95.628z"/>
</g>
</svg>
