<?xml version="1.0" encoding="UTF-8" standalone="no"?>
<svg
   xmlns:dc="http://purl.org/dc/elements/1.1/"
   xmlns:cc="http://creativecommons.org/ns#"
   xmlns:rdf="http://www.w3.org/1999/02/22-rdf-syntax-ns#"
   xmlns:svg="http://www.w3.org/2000/svg"
   xmlns="http://www.w3.org/2000/svg"
   viewBox="0 0 27.369734 31.357468"
   height="31.357468"
   width="27.369734"
   xml:space="preserve"
   id="svg2"
   version="1.1"><metadata
     id="metadata8"><rdf:RDF><cc:Work
         rdf:about=""><dc:format>image/svg+xml</dc:format><dc:type
           rdf:resource="http://purl.org/dc/dcmitype/StillImage" /></cc:Work></rdf:RDF></metadata><defs
     id="defs6"><clipPath
       id="clipPath18"
       clipPathUnits="userSpaceOnUse"><path
         id="path16"
         d="M 0,23.518 H 20.527 V 0 H 0 Z" /></clipPath></defs><g
     transform="matrix(1.3333333,0,0,-1.3333333,0,31.357467)"
     id="g10"><g
       id="g12"><g
         clip-path="url(#clipPath18)"
         id="g14"><g
           transform="translate(10.2637,13.9316)"
           id="g20"><path
             id="path22"
             style="fill:#ffffff;fill-opacity:1;fill-rule:nonzero;stroke:none"
             d="m 0,0 v -7.334 c 0.041,0 0.08,-0.002 0.123,-0.002 0,0 7.211,-0.334 10.141,2.254 V 1.462 C 9.298,1.044 6.271,-0.001 0.123,-0.001 0.08,-0.001 0.041,0 0,0" /></g><g
           transform="translate(10.3867,6.5957)"
           id="g24"><path
             id="path26"
             style="fill:#fee38c;fill-opacity:1;fill-rule:nonzero;stroke:none"
             d="m 0,0 c -0.043,0 -0.082,0.002 -0.123,0.002 v -6.596 c 0.175,-0.002 0.35,-0.003 0.528,-0.002 5.551,0.042 8.919,2.479 9.736,3.143 V 2.254 C 7.211,-0.334 0,0 0,0" /></g><g
           transform="translate(10.2637,20.6655)"
           id="g28"><path
             id="path30"
             style="fill:#fee38c;fill-opacity:1;fill-rule:nonzero;stroke:none"
             d="m 0,0 v 0 -6.734 c 0.041,0 0.08,-0.001 0.123,-0.001 6.148,0 9.175,1.045 10.141,1.463 v 4.27 2.428 C 8.339,0.579 4.467,0 0,0" /></g><g
           transform="translate(0,8.4531)"
           id="g32"><path
             id="path34"
             style="fill:#ffffff;fill-opacity:1;fill-rule:nonzero;stroke:none"
             d="M 0,0 C 0.857,-0.384 4.491,-1.836 10.264,-1.855 V 5.479 C 4.256,5.493 1.14,6.554 0,7.056 Z" /></g><g
           transform="translate(0,8.4531)"
           id="g36"><path
             id="path38"
             style="fill:#fcd23f;fill-opacity:1;fill-rule:nonzero;stroke:none"
             d="M 0,0 V -5.122 L 0.013,-5.42 c 1.135,-0.929 4.179,-2.963 10.251,-3.031 v 6.596 C 4.491,-1.836 0.857,-0.384 0,0" /></g><g
           transform="translate(0,19.6636)"
           id="g40"><path
             id="path42"
             style="fill:#fcd23f;fill-opacity:1;fill-rule:nonzero;stroke:none"
             d="M 0,0 V -4.155 C 1.14,-4.657 4.256,-5.717 10.264,-5.732 V 1.002 C 5.797,1.002 1.925,1.581 0,2.428 Z" /></g><g
           transform="translate(10.2637,20.6655)"
           id="g44"><path
             id="path46"
             style="fill:#fcd23f;fill-opacity:1;fill-rule:nonzero;stroke:none"
             d="M 0,0 C 4.467,0 8.339,0.579 10.264,1.426 H 0 -10.264 C -8.339,0.579 -4.467,0 0,0" /></g><g
           transform="translate(10.2637,22.0918)"
           id="g48"><path
             id="path50"
             style="fill:#fcd23f;fill-opacity:1;fill-rule:nonzero;stroke:none"
             d="M 0,0 H 10.264 C 8.339,0.847 4.467,1.426 0,1.426 -4.467,1.426 -8.339,0.847 -10.264,0 Z" /></g><g
           transform="translate(13.6689,15.4111)"
           id="g52"><path
             id="path54"
             style="fill:#010101;fill-opacity:1;fill-rule:nonzero;stroke:none"
             d="m 0,0 v -2.04 c -0.841,0.487 -1.77,0.73 -2.786,0.73 -1.019,0 -1.867,-0.346 -2.547,-1.037 -0.68,-0.691 -1.021,-1.617 -1.021,-2.778 0,-1.161 0.341,-2.083 1.021,-2.77 0.68,-0.684 1.566,-1.028 2.661,-1.028 1.052,0 1.947,0.277 2.687,0.83 v -2.09 c -0.685,-0.442 -1.647,-0.663 -2.885,-0.663 -1.659,0 -3.026,0.523 -4.105,1.568 -1.078,1.044 -1.616,2.428 -1.616,4.153 0,1.692 0.533,3.071 1.6,4.138 1.066,1.068 2.44,1.601 4.121,1.601 C -1.644,0.614 -0.687,0.409 0,0" /></g></g></g></g></svg>