<?xml version="1.0" encoding="utf-8"?>
<!-- Generator: Adobe Illustrator 16.0.0, SVG Export Plug-In . SVG Version: 6.00 Build 0)  -->
<!DOCTYPE svg PUBLIC "-//W3C//DTD SVG 1.1 Tiny//EN" "http://www.w3.org/Graphics/SVG/1.1/DTD/svg11-tiny.dtd">
<svg version="1.1" baseProfile="tiny" id="Layer_1" xmlns="http://www.w3.org/2000/svg" xmlns:xlink="http://www.w3.org/1999/xlink"
	 x="0px" y="0px" width="595.275px" height="595.275px" viewBox="0 0 595.275 595.275" xml:space="preserve">
<g>
	<path fill="#E7E7E7" d="M497.625,297.147c0,109.896-89.102,198.979-198.98,198.979c-109.919,0-199.041-89.082-199.041-198.979
		c0-109.921,89.121-198.998,199.041-198.998C408.523,98.149,497.625,187.227,497.625,297.147L497.625,297.147z M497.625,297.147"/>
	<path fill="none" stroke="#EDF0F1" stroke-width="0.8" stroke-miterlimit="10" d="M497.625,297.147
		c0,109.896-89.102,198.979-198.98,198.979c-109.919,0-199.041-89.082-199.041-198.979c0-109.921,89.121-198.998,199.041-198.998
		C408.523,98.149,497.625,187.227,497.625,297.147L497.625,297.147z M497.625,297.147"/>
	<path fill="#394650" d="M349.187,358.88h-91.975l-31.584-82.33l75.499-54.891l75.479,54.891L349.187,358.88z M349.187,358.88"/>
	<path fill="#394650" d="M263.038,352.747c-3.383-1.698-7.551-0.312-9.234,3.079l-3.044,6.107c-1.713,3.411-0.354,7.545,3.044,9.228
		c0.958,0.48,1.995,0.728,3.074,0.728c2.505,0,4.925-1.416,6.16-3.802l3.057-6.153C267.788,358.549,266.417,354.435,263.038,352.747
		L263.038,352.747z M263.038,352.747"/>
	<path fill="#394650" d="M250.76,377.289c-3.386-1.723-7.544-0.292-9.257,3.074l-3.032,6.133c-1.715,3.366-0.312,7.52,3.032,9.228
		c1.017,0.475,2.066,0.702,3.096,0.702c2.535,0,4.935-1.391,6.161-3.821l3.044-6.108
		C255.517,383.105,254.167,378.973,250.76,377.289L250.76,377.289z M250.76,377.289"/>
	<path fill="#394650" d="M358.354,361.934l-3.06-6.107c-1.713-3.391-5.826-4.777-9.236-3.079c-3.366,1.688-4.703,5.802-3.079,9.187
		l3.079,6.174c1.228,2.43,3.652,3.781,6.162,3.781c1.05,0,2.114-0.247,3.074-0.728C358.706,369.479,360.067,365.345,358.354,361.934
		L358.354,361.934z M358.354,361.934"/>
	<path fill="#394650" d="M367.566,380.363c-1.693-3.4-5.787-4.797-9.212-3.074c-3.406,1.684-4.772,5.816-3.06,9.207l3.06,6.108
		c1.192,2.431,3.623,3.866,6.138,3.866c1.06,0,2.069-0.272,3.074-0.747c3.391-1.708,4.747-5.861,3.064-9.228L367.566,380.363z
		 M367.566,380.363"/>
	<path fill="#394650" d="M211.852,263.175l-6.329-2.723c-3.5-1.456-7.479,0.144-8.995,3.633c-1.478,3.45,0.112,7.5,3.624,9.019
		l6.296,2.678c0.894,0.396,1.797,0.544,2.723,0.544c2.638,0,5.153-1.52,6.294-4.133C216.963,268.699,215.332,264.67,211.852,263.175
		L211.852,263.175z M211.852,263.175"/>
	<path fill="#394650" d="M186.646,252.345l-6.326-2.678c-3.482-1.515-7.524,0.124-8.977,3.574c-1.517,3.49,0.092,7.524,3.564,9.039
		l6.296,2.703c0.894,0.372,1.839,0.535,2.722,0.535c2.639,0,5.215-1.554,6.284-4.153
		C191.737,257.874,190.086,253.889,186.646,252.345L186.646,252.345z M186.646,252.345"/>
	<path fill="#394650" d="M301.127,166.763c-3.802,0-6.856,3.074-6.856,6.875v6.856c0,3.782,3.054,6.876,6.856,6.876
		c3.781,0,6.855-3.094,6.855-6.876v-6.856C307.982,169.837,304.908,166.763,301.127,166.763L301.127,166.763z M301.127,166.763"/>
	<path fill="#394650" d="M301.127,194.23c-3.802,0-6.856,3.069-6.856,6.836v6.876c0,3.762,3.054,6.875,6.856,6.875
		c3.781,0,6.855-3.114,6.855-6.875v-6.876C307.982,197.3,304.908,194.23,301.127,194.23L301.127,194.23z M301.127,194.23"/>
	<path fill="#394650" d="M396.707,260.453l-6.336,2.723c-3.425,1.495-5.078,5.524-3.554,9.019c1.089,2.613,3.668,4.133,6.286,4.133
		c0.861,0,1.832-0.148,2.703-0.544l6.297-2.678c3.489-1.52,5.098-5.569,3.604-9.019
		C404.231,260.596,400.192,258.997,396.707,260.453L396.707,260.453z M396.707,260.453"/>
	<path fill="#394650" d="M430.952,253.24c-1.495-3.45-5.554-5.088-8.999-3.574l-6.347,2.678c-3.455,1.544-5.078,5.529-3.594,9.019
		c1.1,2.599,3.653,4.153,6.316,4.153c0.906,0,1.832-0.163,2.703-0.555l6.316-2.683C430.823,260.765,432.388,256.73,430.952,253.24
		L430.952,253.24z M430.952,253.24"/>
	<path fill="#44525A" d="M249.534,104.961l-17.135,24.627l68.728,44.05l61.757-47.213l-15.578-22.251
		c-15.206-3.821-31.071-5.9-47.414-6.009C282.457,98.273,265.627,100.64,249.534,104.961L249.534,104.961z M249.534,104.961"/>
	<path fill="#44525A" d="M435.793,180.494l-11.167,75.469l68.688,41.68l4.099-7.875c-1.44-39.25-14.197-75.592-35.156-105.803
		L435.793,180.494z M435.793,180.494"/>
	<path fill="#44525A" d="M443.872,433.106l1.356-33.047h-75.499l-32.884,72.771l28.419,11.802
		C395.529,473.89,422.358,456,443.872,433.106L443.872,433.106z M443.872,433.106"/>
	<path fill="#44525A" d="M239.372,400.06h-82.347l1.478,35.765c21.37,21.963,47.729,38.981,77.328,49.263l29.602-12.257
		L239.372,400.06z M239.372,400.06"/>
	<path fill="#44525A" d="M177.64,255.963l-11.2-75.469l-29.228,3.807c-20.018,29.042-32.507,63.663-34.688,101.065l6.44,12.276
		L177.64,255.963z M177.64,255.963"/>
</g>
<g>
	<path fill="#2FA949" d="M545.165,278.204h39.378c-4.346-64.875-30.066-123.787-70.351-169.832l-27.854,27.849
		C519.588,175.039,540.968,224.174,545.165,278.204z"/>
	<path fill="#2FA949" d="M458.841,108.748l27.849-27.859c-46.064-40.214-104.971-65.855-169.837-70.157v39.383
		C370.873,54.262,420.003,75.572,458.841,108.748z"/>
	<path fill="#2FA949" d="M50.13,317.082H10.733c4.344,64.781,29.982,123.603,70.16,169.609l27.854-27.845
		C75.604,420.072,54.306,371.018,50.13,317.082z"/>
	<path fill="#2FA949" d="M136.217,486.34l-27.844,27.854c45.994,40.225,104.808,65.95,169.607,70.351v-39.393
		C224.029,540.909,174.979,519.535,136.217,486.34z"/>
	<path fill="#2FA949" d="M277.98,50.149V10.751C134.648,20.468,20.344,134.854,10.733,278.204H50.13
		C59.563,156.585,156.394,59.697,277.98,50.149z"/>
	<path fill="#2FA949" d="M316.853,545.171v39.373c143.532-9.489,258.077-123.955,267.69-267.462h-39.378
		C535.711,438.849,438.654,535.82,316.853,545.171z"/>
</g>
</svg>
