<?xml version="1.0" encoding="UTF-8" standalone="no"?>
<svg
   xmlns:dc="http://purl.org/dc/elements/1.1/"
   xmlns:cc="http://creativecommons.org/ns#"
   xmlns:rdf="http://www.w3.org/1999/02/22-rdf-syntax-ns#"
   xmlns:svg="http://www.w3.org/2000/svg"
   xmlns="http://www.w3.org/2000/svg"
   viewBox="0 0 27.369734 31.355467"
   height="31.355467"
   width="27.369734"
   xml:space="preserve"
   id="svg2"
   version="1.1"><metadata
     id="metadata8"><rdf:RDF><cc:Work
         rdf:about=""><dc:format>image/svg+xml</dc:format><dc:type
           rdf:resource="http://purl.org/dc/dcmitype/StillImage" /></cc:Work></rdf:RDF></metadata><defs
     id="defs6"><clipPath
       id="clipPath18"
       clipPathUnits="userSpaceOnUse"><path
         id="path16"
         d="M 0,23.517 H 20.527 V 0 H 0 Z" /></clipPath></defs><g
     transform="matrix(1.3333333,0,0,-1.3333333,0,31.355467)"
     id="g10"><g
       id="g12"><g
         clip-path="url(#clipPath18)"
         id="g14"><g
           transform="translate(10.2637,13.9302)"
           id="g20"><path
             id="path22"
             style="fill:#ffffff;fill-opacity:1;fill-rule:nonzero;stroke:none"
             d="m 0,0 v -7.334 c 0.041,0 0.08,-0.002 0.123,-0.002 0,0 7.211,-0.334 10.141,2.254 V 1.462 C 9.298,1.044 6.271,-0.001 0.123,-0.001 0.08,-0.001 0.041,0 0,0" /></g><g
           transform="translate(10.3867,6.5937)"
           id="g24"><path
             id="path26"
             style="fill:#e55432;fill-opacity:1;fill-rule:nonzero;stroke:none"
             d="m 0,0 c -0.043,0 -0.082,0.002 -0.123,0.002 v -6.596 c 0.175,-0.002 0.35,-0.002 0.528,-10e-4 5.551,0.042 8.919,2.478 9.736,3.142 V 2.255 C 7.211,-0.334 0,0 0,0" /></g><g
           transform="translate(10.2637,20.6641)"
           id="g28"><path
             id="path30"
             style="fill:#e55432;fill-opacity:1;fill-rule:nonzero;stroke:none"
             d="m 0,0 v 0 -6.734 c 0.041,0 0.08,-0.001 0.123,-0.001 6.148,0 9.175,1.045 10.141,1.463 v 4.27 2.428 C 8.339,0.579 4.467,0 0,0" /></g><g
           transform="translate(0,8.4512)"
           id="g32"><path
             id="path34"
             style="fill:#ffffff;fill-opacity:1;fill-rule:nonzero;stroke:none"
             d="M 0,0 C 0.857,-0.383 4.491,-1.836 10.264,-1.855 V 5.479 C 4.256,5.494 1.14,6.554 0,7.056 Z" /></g><g
           transform="translate(0,8.4512)"
           id="g36"><path
             id="path38"
             style="fill:#ed872d;fill-opacity:1;fill-rule:nonzero;stroke:none"
             d="M 0,0 V -5.121 L 0.013,-5.42 c 1.135,-0.928 4.179,-2.962 10.251,-3.031 v 6.596 C 4.491,-1.836 0.857,-0.383 0,0" /></g><g
           transform="translate(0,19.6621)"
           id="g40"><path
             id="path42"
             style="fill:#ed872d;fill-opacity:1;fill-rule:nonzero;stroke:none"
             d="M 0,0 V -4.155 C 1.14,-4.657 4.256,-5.717 10.264,-5.732 V 1.002 C 5.797,1.002 1.925,1.581 0,2.428 Z" /></g><g
           transform="translate(10.2637,20.6641)"
           id="g44"><path
             id="path46"
             style="fill:#ed872d;fill-opacity:1;fill-rule:nonzero;stroke:none"
             d="M 0,0 C 4.467,0 8.339,0.579 10.264,1.426 H 0 -10.264 C -8.339,0.579 -4.467,0 0,0" /></g><g
           transform="translate(10.2637,22.0903)"
           id="g48"><path
             id="path50"
             style="fill:#ed8325;fill-opacity:1;fill-rule:nonzero;stroke:none"
             d="M 0,0 H 10.264 C 8.339,0.847 4.467,1.426 0,1.426 -4.467,1.426 -8.339,0.847 -10.264,0 Z" /></g><g
           transform="translate(13.3574,15.5708)"
           id="g52"><path
             id="path54"
             style="fill:#010101;fill-opacity:1;fill-rule:nonzero;stroke:none"
             d="m 0,0 v -2.073 c -0.851,0.51 -1.757,0.764 -2.72,0.764 -0.532,0 -0.948,-0.118 -1.25,-0.357 -0.3,-0.238 -0.449,-0.543 -0.449,-0.917 0,-0.374 0.161,-0.683 0.483,-0.927 0.324,-0.244 0.808,-0.512 1.454,-0.807 0.453,-0.204 0.822,-0.382 1.105,-0.535 0.282,-0.153 0.592,-0.365 0.926,-0.637 0.335,-0.272 0.584,-0.598 0.748,-0.978 0.164,-0.379 0.247,-0.813 0.247,-1.3 0,-1.021 -0.365,-1.833 -1.097,-2.439 -0.73,-0.606 -1.69,-0.91 -2.881,-0.91 -1.292,0 -2.363,0.244 -3.212,0.732 v 2.192 c 0.974,-0.703 2.04,-1.054 3.196,-1.054 0.521,0 0.94,0.127 1.258,0.382 0.316,0.256 0.474,0.598 0.474,1.029 0,0.204 -0.039,0.385 -0.118,0.543 -0.079,0.16 -0.241,0.318 -0.484,0.477 -0.243,0.158 -0.432,0.272 -0.562,0.34 -0.13,0.068 -0.398,0.192 -0.806,0.373 -0.115,0.057 -0.199,0.097 -0.256,0.119 -0.419,0.193 -0.758,0.365 -1.019,0.519 -0.262,0.153 -0.544,0.36 -0.85,0.62 -0.305,0.261 -0.535,0.572 -0.688,0.935 -0.153,0.362 -0.23,0.776 -0.23,1.241 0,0.974 0.36,1.756 1.08,2.345 0.718,0.589 1.673,0.884 2.864,0.884 C -1.711,0.561 -0.783,0.374 0,0" /></g></g></g></g></svg>