<?xml version="1.0" encoding="UTF-8" standalone="no"?>
<svg
   xmlns:dc="http://purl.org/dc/elements/1.1/"
   xmlns:cc="http://creativecommons.org/ns#"
   xmlns:rdf="http://www.w3.org/1999/02/22-rdf-syntax-ns#"
   xmlns:svg="http://www.w3.org/2000/svg"
   xmlns="http://www.w3.org/2000/svg"
   viewBox="0 0 124.34307 124.68613"
   height="124.68613"
   width="124.34307"
   xml:space="preserve"
   id="svg2"
   version="1.1"><metadata
     id="metadata8"><rdf:RDF><cc:Work
         rdf:about=""><dc:format>image/svg+xml</dc:format><dc:type
           rdf:resource="http://purl.org/dc/dcmitype/StillImage" /></cc:Work></rdf:RDF></metadata><defs
     id="defs6"><clipPath
       id="clipPath18"
       clipPathUnits="userSpaceOnUse"><path
         id="path16"
         d="M 0,93.515 H 93.257 V 0 H 0 Z" /></clipPath></defs><g
     transform="matrix(1.3333333,0,0,-1.3333333,0,124.68613)"
     id="g10"><g
       id="g12"><g
         clip-path="url(#clipPath18)"
         id="g14"><g
           transform="translate(93.5327,46.7568)"
           id="g20"><path
             id="path22"
             style="fill:#e7e8e8;fill-opacity:1;fill-rule:nonzero;stroke:none"
             d="m 0,0 c 0,-25.824 -20.937,-46.758 -46.758,-46.758 -25.83,0 -46.775,20.934 -46.775,46.758 0,25.83 20.945,46.764 46.775,46.764 C -20.937,46.764 0,25.83 0,0" /></g><g
           transform="translate(93.5327,46.7568)"
           id="g24"><path
             id="path26"
             style="fill:none;stroke:#ebf0f1;stroke-width:0.80000001;stroke-linecap:butt;stroke-linejoin:miter;stroke-miterlimit:10;stroke-dasharray:none;stroke-opacity:1"
             d="m 0,0 c 0,-25.824 -20.937,-46.758 -46.758,-46.758 -25.83,0 -46.775,20.934 -46.775,46.758 0,25.83 20.945,46.764 46.775,46.764 C -20.937,46.764 0,25.83 0,0 Z" /></g><g
           transform="translate(58.6519,32.251)"
           id="g28"><path
             id="path30"
             style="fill:#2e434e;fill-opacity:1;fill-rule:nonzero;stroke:none"
             d="m 0,0 h -21.613 l -7.422,19.346 17.742,12.9 17.736,-12.9 z" /></g><g
           transform="translate(38.4082,33.6904)"
           id="g32"><path
             id="path34"
             style="fill:#2e434e;fill-opacity:1;fill-rule:nonzero;stroke:none"
             d="m 0,0 c -0.796,0.4 -1.775,0.074 -2.17,-0.723 l -0.716,-1.435 c -0.403,-0.801 -0.083,-1.772 0.716,-2.168 0.222,-0.111 0.468,-0.17 0.722,-0.17 0.589,0 1.157,0.332 1.448,0.892 l 0.718,1.446 C 1.116,-1.361 0.793,-0.395 0,0" /></g><g
           transform="translate(35.5225,27.9248)"
           id="g36"><path
             id="path38"
             style="fill:#2e434e;fill-opacity:1;fill-rule:nonzero;stroke:none"
             d="m 0,0 c -0.796,0.404 -1.772,0.068 -2.175,-0.723 l -0.713,-1.441 c -0.403,-0.791 -0.073,-1.768 0.713,-2.168 0.239,-0.111 0.486,-0.166 0.727,-0.166 0.596,0 1.16,0.328 1.448,0.898 l 0.715,1.436 C 1.118,-1.367 0.801,-0.396 0,0" /></g><g
           transform="translate(60.8062,31.5322)"
           id="g40"><path
             id="path42"
             style="fill:#2e434e;fill-opacity:1;fill-rule:nonzero;stroke:none"
             d="M 0,0 -0.719,1.436 C -1.121,2.232 -2.088,2.559 -2.891,2.158 -3.68,1.764 -3.994,0.797 -3.613,0 l 0.722,-1.449 c 0.29,-0.572 0.86,-0.889 1.45,-0.889 0.247,0 0.496,0.059 0.722,0.17 C 0.082,-1.771 0.402,-0.801 0,0" /></g><g
           transform="translate(62.9712,27.2021)"
           id="g44"><path
             id="path46"
             style="fill:#2e434e;fill-opacity:1;fill-rule:nonzero;stroke:none"
             d="M 0,0 C -0.397,0.801 -1.36,1.127 -2.165,0.723 -2.966,0.326 -3.286,-0.645 -2.884,-1.441 l 0.719,-1.436 c 0.28,-0.57 0.852,-0.908 1.442,-0.908 0.247,0 0.486,0.064 0.723,0.176 0.796,0.4 1.116,1.377 0.72,2.168 z" /></g><g
           transform="translate(26.3794,54.7412)"
           id="g48"><path
             id="path50"
             style="fill:#2e434e;fill-opacity:1;fill-rule:nonzero;stroke:none"
             d="M 0,0 -1.487,0.639 C -2.31,0.98 -3.245,0.605 -3.601,-0.215 c -0.347,-0.81 0.027,-1.764 0.852,-2.119 l 1.479,-0.631 c 0.21,-0.092 0.423,-0.127 0.64,-0.127 0.62,0 1.211,0.358 1.48,0.973 C 1.201,-1.299 0.818,-0.352 0,0" /></g><g
           transform="translate(20.4565,57.2842)"
           id="g52"><path
             id="path54"
             style="fill:#2e434e;fill-opacity:1;fill-rule:nonzero;stroke:none"
             d="m 0,0 -1.487,0.631 c -0.818,0.355 -1.767,-0.029 -2.109,-0.84 -0.357,-0.82 0.022,-1.768 0.837,-2.125 l 1.48,-0.635 c 0.21,-0.088 0.432,-0.127 0.639,-0.127 0.62,0 1.223,0.367 1.477,0.977 C 1.196,-1.299 0.808,-0.361 0,0" /></g><g
           transform="translate(47.3584,77.3975)"
           id="g56"><path
             id="path58"
             style="fill:#2e434e;fill-opacity:1;fill-rule:nonzero;stroke:none"
             d="m 0,0 c -0.894,0 -1.611,-0.723 -1.611,-1.617 v -1.612 c 0,-0.888 0.717,-1.615 1.611,-1.615 0.889,0 1.612,0.727 1.612,1.615 v 1.612 C 1.612,-0.723 0.889,0 0,0" /></g><g
           transform="translate(47.3584,70.9424)"
           id="g60"><path
             id="path62"
             style="fill:#2e434e;fill-opacity:1;fill-rule:nonzero;stroke:none"
             d="m 0,0 c -0.894,0 -1.611,-0.723 -1.611,-1.607 v -1.616 c 0,-0.884 0.717,-1.617 1.611,-1.617 0.889,0 1.612,0.733 1.612,1.617 v 1.616 C 1.612,-0.723 0.889,0 0,0" /></g><g
           transform="translate(69.8198,55.3799)"
           id="g64"><path
             id="path66"
             style="fill:#2e434e;fill-opacity:1;fill-rule:nonzero;stroke:none"
             d="m 0,0 -1.49,-0.639 c -0.805,-0.351 -1.194,-1.298 -0.834,-2.119 0.256,-0.615 0.861,-0.972 1.476,-0.972 0.203,0 0.43,0.035 0.635,0.126 l 1.48,0.631 c 0.82,0.356 1.198,1.309 0.846,2.119 C 1.768,-0.033 0.817,0.342 0,0" /></g><g
           transform="translate(77.8667,57.0752)"
           id="g68"><path
             id="path70"
             style="fill:#2e434e;fill-opacity:1;fill-rule:nonzero;stroke:none"
             d="M 0,0 C -0.352,0.811 -1.307,1.195 -2.115,0.84 L -3.606,0.209 C -4.42,-0.152 -4.801,-1.09 -4.451,-1.91 c 0.259,-0.61 0.859,-0.977 1.484,-0.977 0.213,0 0.43,0.039 0.635,0.133 l 1.484,0.629 C -0.032,-1.768 0.336,-0.82 0,0" /></g><g
           transform="translate(35.2344,91.9189)"
           id="g72"><path
             id="path74"
             style="fill:#3b5059;fill-opacity:1;fill-rule:nonzero;stroke:none"
             d="m 0,0 -4.026,-5.787 16.15,-10.352 14.512,11.094 -3.66,5.231 C 19.402,1.084 15.673,1.572 11.833,1.596 7.737,1.572 3.782,1.016 0,0" /></g><g
           transform="translate(79.0034,74.1689)"
           id="g76"><path
             id="path78"
             style="fill:#3b5059;fill-opacity:1;fill-rule:nonzero;stroke:none"
             d="m 0,0 -2.624,-17.734 16.14,-9.795 0.964,1.851 c -0.339,9.223 -3.337,17.764 -8.261,24.864 z" /></g><g
           transform="translate(80.9009,14.8096)"
           id="g80"><path
             id="path82"
             style="fill:#3b5059;fill-opacity:1;fill-rule:nonzero;stroke:none"
             d="m 0,0 0.319,7.764 h -17.741 l -7.727,-17.1 6.677,-2.773 C -11.36,-9.586 -5.054,-5.381 0,0" /></g><g
           transform="translate(32.8467,22.5732)"
           id="g84"><path
             id="path86"
             style="fill:#3b5059;fill-opacity:1;fill-rule:nonzero;stroke:none"
             d="m 0,0 h -19.351 l 0.347,-8.404 c 5.022,-5.16 11.216,-9.16 18.171,-11.576 l 6.956,2.88 z" /></g><g
           transform="translate(18.3398,56.4346)"
           id="g88"><path
             id="path90"
             style="fill:#3b5059;fill-opacity:1;fill-rule:nonzero;stroke:none"
             d="M 0,0 -2.632,17.734 -9.5,16.842 c -4.704,-6.826 -7.639,-14.961 -8.151,-23.75 l 1.513,-2.887 z" /></g></g></g></g></svg>