<?xml version="1.0" encoding="UTF-8" standalone="no"?>
<svg
   xmlns:dc="http://purl.org/dc/elements/1.1/"
   xmlns:cc="http://creativecommons.org/ns#"
   xmlns:rdf="http://www.w3.org/1999/02/22-rdf-syntax-ns#"
   xmlns:svg="http://www.w3.org/2000/svg"
   xmlns="http://www.w3.org/2000/svg"
   viewBox="0 0 174.94267 91.59053"
   height="91.59053"
   width="174.94267"
   xml:space="preserve"
   id="svg2"
   version="1.1"><metadata
     id="metadata8"><rdf:RDF><cc:Work
         rdf:about=""><dc:format>image/svg+xml</dc:format><dc:type
           rdf:resource="http://purl.org/dc/dcmitype/StillImage" /></cc:Work></rdf:RDF></metadata><defs
     id="defs6"><clipPath
       id="clipPath18"
       clipPathUnits="userSpaceOnUse"><path
         id="path16"
         d="M 0,68.693 H 131.207 V 0 H 0 Z" /></clipPath></defs><g
     transform="matrix(1.3333333,0,0,-1.3333333,0,91.590533)"
     id="g10"><g
       id="g12"><g
         clip-path="url(#clipPath18)"
         id="g14"><g
           transform="translate(114.8101,8.7812)"
           id="g20"><path
             id="path22"
             style="fill:#707075;fill-opacity:1;fill-rule:nonzero;stroke:none"
             d="m 0,0 -0.005,-3.58 c -0.005,-2.397 1.937,-4.356 4.331,-4.357 2.398,0 4.341,1.941 4.346,4.345 l 0.005,8.738 z" /></g><g
           transform="translate(81.2827,7.9727)"
           id="g24"><path
             id="path26"
             style="fill:#707075;fill-opacity:1;fill-rule:nonzero;stroke:none"
             d="m 0,0 -0.006,-3.574 c -0.004,-2.405 1.934,-4.36 4.326,-4.365 2.393,0 4.346,1.943 4.352,4.345 l 0.004,3.574" /></g><g
           transform="translate(98.0698,7.9355)"
           id="g28"><path
             id="path30"
             style="fill:#707075;fill-opacity:1;fill-rule:nonzero;stroke:none"
             d="m 0,0 -0.01,-3.576 c 0,-2.397 1.931,-4.358 4.326,-4.36 2.407,-0.003 4.35,1.94 4.356,4.342 l 0.004,3.578" /></g><g
           transform="translate(16.5972,8.1074)"
           id="g32"><path
             id="path34"
             style="fill:#707075;fill-opacity:1;fill-rule:nonzero;stroke:none"
             d="m 0,0 -0.015,-3.582 c -0.002,-2.4 1.936,-4.355 4.331,-4.357 2.393,-0.008 4.339,1.935 4.346,4.343 l 0.005,3.576" /></g><g
           transform="translate(34.8369,8.0684)"
           id="g36"><path
             id="path38"
             style="fill:#707075;fill-opacity:1;fill-rule:nonzero;stroke:none"
             d="m 0,0 -0.007,-3.58 c -0.005,-2.399 1.933,-4.356 4.34,-4.357 2.383,-0.004 4.332,1.941 4.334,4.343 l 0.01,3.574" /></g><g
           transform="translate(57.8179,60.4434)"
           id="g40"><path
             id="path42"
             style="fill:#e33d2c;fill-opacity:1;fill-rule:nonzero;stroke:none"
             d="m 0,0 -8.474,8.25 -5.718,-5.831 8.357,-8.527" /></g><g
           transform="translate(124.1538,10.6465)"
           id="g44"><path
             id="path46"
             style="fill:#e65d44;fill-opacity:1;fill-rule:nonzero;stroke:none"
             d="m 0,0 c -1.268,-0.387 -2.666,-0.773 -4.187,-1.148 -4.327,-1.059 -8.78,-1.592 -13.225,-1.582 l -74.459,0.152 h -1.128 l -5.942,0.01 c -6.199,0.011 -10.068,0.021 -10.068,0.021 -10.445,1.809 -17.168,12.002 -14.595,22.229 l 0.713,2.829 0.954,3.805 0.271,1.055 4.224,16.808 12.129,-0.024 1.663,-4.129 c 3.85,-9.572 16.254,-12.009 23.422,-4.597 l 13.892,14.361 c 0,0 2.766,-2.852 7.703,-6.802 1.078,-0.867 2.263,-1.778 3.539,-2.727 1.69,-1.253 3.545,-2.568 5.563,-3.899 1.222,-0.808 2.5,-1.621 3.832,-2.429 1.883,-1.152 3.883,-2.293 5.979,-3.406 1.345,-0.713 2.741,-1.424 4.177,-2.105 9.557,-4.557 20.855,-8.209 33.182,-8.85 1.222,-0.06 2.402,-0.359 3.494,-0.847 C 2.229,18.232 3.239,17.533 4.108,16.672 5.773,15.008 6.699,12.979 6.967,10.906 7.57,6.316 4.955,1.514 0,0" /></g><g
           transform="translate(124.1538,10.6504)"
           id="g48"><path
             id="path50"
             style="fill:#ffffff;fill-opacity:1;fill-rule:nonzero;stroke:none"
             d="m 0,0 c -1.263,-0.391 -2.666,-0.771 -4.183,-1.148 -4.329,-1.059 -8.784,-1.596 -13.229,-1.582 l -75.059,0.148 c -1.973,5.549 -4.058,9.238 -4.058,9.238 h 27.146 c 15.988,0.342 41.19,-0.875 57.114,0.569 6.488,0.574 12.982,1.74 19.236,3.677 C 7.57,6.312 4.961,1.51 0,0" /></g><g
           transform="translate(69.0601,50.9072)"
           id="g52"><path
             id="path54"
             style="fill:#ffffff;fill-opacity:1;fill-rule:nonzero;stroke:none"
             d="m 0,0 -5.644,-5.637 c -0.43,-0.425 -0.999,-0.645 -1.565,-0.645 -0.574,0 -1.138,0.22 -1.567,0.65 -0.862,0.859 -0.862,2.265 0.005,3.125 l 5.232,5.234 C -2.461,1.86 -1.276,0.95 0,0" /></g><g
           transform="translate(78.4546,44.5796)"
           id="g56"><path
             id="path58"
             style="fill:#ffffff;fill-opacity:1;fill-rule:nonzero;stroke:none"
             d="m 0,0 -6.149,-6.141 c -0.43,-0.431 -0.987,-0.646 -1.556,-0.646 -0.573,0 -1.143,0.215 -1.565,0.648 -0.869,0.866 -0.869,2.266 0,3.128 l 5.438,5.44 C -2.609,1.621 -1.332,0.808 0,0" /></g><g
           transform="translate(88.6069,39.0688)"
           id="g60"><path
             id="path62"
             style="fill:#ffffff;fill-opacity:1;fill-rule:nonzero;stroke:none"
             d="m 0,0 -5.758,-5.64 c -0.433,-0.422 -0.988,-0.634 -1.55,-0.634 -0.576,0 -1.147,0.226 -1.577,0.669 -0.859,0.872 -0.847,2.27 0.031,3.125 l 4.681,4.584 C -2.828,1.392 -1.432,0.681 0,0" /></g><g
           transform="translate(32.2832,8.0684)"
           id="g64"><path
             id="path66"
             style="fill:#e33d2c;fill-opacity:1;fill-rule:nonzero;stroke:none"
             d="M 0,0 H -1.128 L -7.07,0.01 C -13.269,0.021 -17.139,0.031 -17.139,0.031 -27.583,1.84 -34.307,12.033 -31.733,22.26 l 0.712,2.829 0.955,3.805 0.271,1.055 1.58,-0.384 C -14.724,24.609 -4.321,13.674 0,0" /></g></g></g></g></svg>