<?xml version="1.0" encoding="UTF-8" standalone="no"?>
<svg
   xmlns:dc="http://purl.org/dc/elements/1.1/"
   xmlns:cc="http://creativecommons.org/ns#"
   xmlns:rdf="http://www.w3.org/1999/02/22-rdf-syntax-ns#"
   xmlns:svg="http://www.w3.org/2000/svg"
   xmlns="http://www.w3.org/2000/svg"
   viewBox="0 0 119.99347 122.5072"
   height="122.5072"
   width="119.99347"
   xml:space="preserve"
   id="svg2"
   version="1.1"><metadata
     id="metadata8"><rdf:RDF><cc:Work
         rdf:about=""><dc:format>image/svg+xml</dc:format><dc:type
           rdf:resource="http://purl.org/dc/dcmitype/StillImage" /></cc:Work></rdf:RDF></metadata><defs
     id="defs6"><clipPath
       id="clipPath24"
       clipPathUnits="userSpaceOnUse"><path
         id="path22"
         d="M 0,91.88 H 89.995 V 0 H 0 Z" /></clipPath><clipPath
       id="clipPath100"
       clipPathUnits="userSpaceOnUse"><path
         id="path98"
         d="M 0,0 H 89.995 V 91.88 H 0 Z" /></clipPath></defs><g
     transform="matrix(1.3333333,0,0,-1.3333333,0,122.5072)"
     id="g10"><path
       id="path12"
       style="fill:#e9745b;fill-opacity:1;fill-rule:nonzero;stroke:none"
       d="M 3.147,0.001 H 87.956 V 73.814 H 3.147 Z" /><path
       id="path14"
       style="fill:#c35959;fill-opacity:1;fill-rule:nonzero;stroke:none"
       d="M 6.274,45.548 H 50.26 V 9.425 H 6.274 Z" /><path
       id="path16"
       style="fill:#9fcde9;fill-opacity:1;fill-rule:nonzero;stroke:none"
       d="M 9.426,42.407 H 47.114 V 12.563 H 9.426 Z" /><g
       id="g18"><g
         clip-path="url(#clipPath24)"
         id="g20"><g
           transform="translate(23.5522,73.8135)"
           id="g26"><path
             id="path28"
             style="fill:#e86d61;fill-opacity:1;fill-rule:nonzero;stroke:none"
             d="m 0,0 h -21.387 c -0.295,0 -0.517,0.289 -0.434,0.582 l 6.382,13.857 c 0.8,1.729 2.531,2.842 4.445,2.842 H 3.147 Z" /></g><g
           transform="translate(67.5322,73.8135)"
           id="g30"><path
             id="path32"
             style="fill:#e86d61;fill-opacity:1;fill-rule:nonzero;stroke:none"
             d="M 0,0 H -21.99 V 17.281 H -3.138 Z" /></g><g
           transform="translate(34.5581,51.8271)"
           id="g34"><path
             id="path36"
             style="fill:#f4be00;fill-opacity:1;fill-rule:nonzero;stroke:none"
             d="m 0,0 c -6.077,0 -11.006,4.926 -11.006,11.006 v 10.98 h 21.99 V 11.006 C 10.984,4.926 6.06,0 0,0" /></g><g
           transform="translate(78.5254,51.8271)"
           id="g38"><path
             id="path40"
             style="fill:#f4be00;fill-opacity:1;fill-rule:nonzero;stroke:none"
             d="m 0,0 c -6.071,0 -10.993,4.926 -10.993,11.006 v 10.98 h 21.826 c 0.088,0 0.17,-0.072 0.17,-0.166 V 11.006 C 11.003,4.926 6.079,0 0,0" /></g><g
           transform="translate(45.542,73.8135)"
           id="g42"><path
             id="path44"
             style="fill:#f4ce55;fill-opacity:1;fill-rule:nonzero;stroke:none"
             d="m 0,0 h -21.99 l 3.147,17.281 H 0 Z" /></g><g
           transform="translate(88.9648,73.8135)"
           id="g46"><path
             id="path48"
             style="fill:#f4ce55;fill-opacity:1;fill-rule:nonzero;stroke:none"
             d="m 0,0 h -21.433 l -3.137,17.281 h 14.14 c 1.914,0 3.646,-1.113 4.451,-2.857 L 0.405,0.537 C 0.481,0.273 0.276,0 0,0" /></g><g
           transform="translate(12.5586,51.8271)"
           id="g50"><path
             id="path52"
             style="fill:#e46157;fill-opacity:1;fill-rule:nonzero;stroke:none"
             d="m 0,0 c -6.062,0 -10.984,4.926 -10.984,11.006 v 10.537 c 0,0.248 0.193,0.443 0.44,0.443 H 10.994 V 11.006 C 10.994,4.926 6.077,0 0,0" /></g><g
           transform="translate(56.5459,51.8271)"
           id="g54"><path
             id="path56"
             style="fill:#e46157;fill-opacity:1;fill-rule:nonzero;stroke:none"
             d="m 0,0 c -6.08,0 -11.004,4.926 -11.004,11.006 v 10.98 h 21.99 V 11.006 C 10.986,4.926 6.071,0 0,0" /></g><path
           id="path58"
           style="fill:#c35959;fill-opacity:1;fill-rule:nonzero;stroke:none"
           d="M 56.546,45.548 H 81.677 V 0.001 H 56.546 Z" /><path
           id="path60"
           style="fill:#9fcde9;fill-opacity:1;fill-rule:nonzero;stroke:none"
           d="M 59.678,42.407 H 78.526 V 3.139 H 59.678 Z" /><g
           transform="translate(75.3838,17.2705)"
           id="g62"><path
             id="path64"
             style="fill:#ffffff;fill-opacity:1;fill-rule:nonzero;stroke:none"
             d="m 0,0 c -0.867,0 -1.561,0.713 -1.561,1.572 v 4.723 c 0,0.863 0.694,1.557 1.561,1.557 0.873,0 1.572,-0.694 1.572,-1.557 V 1.572 C 1.572,0.713 0.873,0 0,0" /></g><g
           transform="translate(26.6992,31.417)"
           id="g66"><path
             id="path68"
             style="fill:#ffffff;fill-opacity:1;fill-rule:nonzero;stroke:none"
             d="m 0,0 c 0.403,0 0.801,0.15 1.111,0.463 l 6.284,6.279 c 0.615,0.612 0.615,1.602 0,2.217 -0.61,0.611 -1.611,0.611 -2.227,0 L -1.111,2.68 c -0.61,-0.616 -0.61,-1.612 0,-2.217 C -0.806,0.15 -0.403,0 0,0" /></g><g
           transform="translate(26.6992,23.5654)"
           id="g70"><path
             id="path72"
             style="fill:#ffffff;fill-opacity:1;fill-rule:nonzero;stroke:none"
             d="m 0,0 c 0.403,0 0.801,0.15 1.111,0.459 l 3.137,3.135 c 0.618,0.615 0.618,1.611 0,2.22 -0.61,0.616 -1.609,0.616 -2.222,0 L -1.111,2.676 c -0.61,-0.615 -0.61,-1.602 0,-2.217 C -0.806,0.15 -0.403,0 0,0" /></g><g
           transform="translate(31.8628,32.5244)"
           id="g74"><path
             id="path76"
             style="fill:#ffffff;fill-opacity:1;fill-rule:nonzero;stroke:none"
             d="m 0,0 c -0.286,-0.297 -0.452,-0.703 -0.452,-1.107 0,-0.416 0.166,-0.821 0.452,-1.11 0.298,-0.287 0.691,-0.459 1.121,-0.459 0.407,0 0.815,0.162 1.11,0.446 0.286,0.302 0.464,0.707 0.464,1.123 0,0.404 -0.178,0.81 -0.464,1.107 C 1.648,0.592 0.583,0.592 0,0" /></g><g
           transform="translate(35.0146,33.4385)"
           id="g78"><path
             id="path80"
             style="fill:#ffffff;fill-opacity:1;fill-rule:nonzero;stroke:none"
             d="m 0,0 c 0.31,-0.303 0.708,-0.459 1.106,-0.459 0.408,0 0.806,0.156 1.111,0.459 l 4.719,4.721 c 0.61,0.611 0.61,1.601 0,2.216 -0.62,0.612 -1.614,0.612 -2.229,0 L 0,2.227 C -0.615,1.611 -0.615,0.615 0,0" /></g><g
           transform="translate(39.7217,32.5146)"
           id="g82"><path
             id="path84"
             style="fill:#ffffff;fill-opacity:1;fill-rule:nonzero;stroke:none"
             d="m 0,0 -14.133,-14.131 c -0.611,-0.615 -0.611,-1.605 0,-2.217 0.305,-0.306 0.708,-0.459 1.111,-0.459 0.402,0 0.8,0.153 1.11,0.459 L 2.229,-2.211 c 0.61,0.619 0.61,1.602 0,2.211 C 1.609,0.621 0.615,0.621 0,0" /></g><g
           transform="translate(45.0928,35.6748)"
           id="g86"><path
             id="path88"
             style="fill:#ffffff;fill-opacity:1;fill-rule:nonzero;stroke:none"
             d="m 0,0 c -0.586,0.57 -1.653,0.57 -2.234,0 -0.278,-0.303 -0.449,-0.719 -0.449,-1.123 0,-0.406 0.171,-0.811 0.449,-1.113 0.296,-0.284 0.708,-0.459 1.111,-0.459 0.415,0 0.823,0.175 1.123,0.459 0.283,0.302 0.449,0.707 0.449,1.113 C 0.449,-0.719 0.283,-0.303 0,0" /></g><g
           transform="translate(10.9961,0.001)"
           id="g90"><path
             id="path92"
             style="fill:#d8814e;fill-opacity:1;fill-rule:nonzero;stroke:none"
             d="m 0,0 h -9.421 l -1.446,8.627 c -0.073,0.416 0.252,0.797 0.677,0.797 H 1.562 Z" /></g></g></g><g
       id="g94"><g
         clip-path="url(#clipPath100)"
         id="g96"><path
           id="path102"
           style="fill:#866f5c;fill-opacity:1;fill-rule:nonzero;stroke:none"
           d="M 4.707,26.7 H 7.854 V 9.425 H 4.707 Z" /><g
           transform="translate(12.8589,33.4873)"
           id="g104"><path
             id="path106"
             style="fill:#009a56;fill-opacity:1;fill-rule:nonzero;stroke:none"
             d="m 0,0 c 0.479,1.205 0.82,2.553 0.562,3.832 -0.118,0.563 -0.372,1.1 -0.713,1.52 -0.594,0.716 -0.852,1.738 -0.652,2.695 0.188,0.883 0.078,1.889 -0.34,2.695 -0.759,1.465 -2.27,2.276 -3.767,2.49 -1.106,0.161 -2.321,0 -3.137,-0.849 l -0.972,-0.83 c -1.101,-0.528 -1.945,-1.676 -2.182,-2.985 -0.134,-0.707 -0.083,-1.459 0.117,-2.142 0.303,-1.031 0.049,-2.139 -0.535,-2.998 -1.313,-1.94 -1.655,-4.727 -0.693,-6.93 0.129,-0.273 0.286,-0.551 0.471,-0.805 0.64,-0.849 0.877,-1.982 0.603,-3.047 -0.056,-0.25 -0.097,-0.503 -0.122,-0.748 -0.105,-1.142 0.13,-2.285 0.361,-3.402 0.247,-1.168 0.557,-2.418 1.399,-3.144 1.148,-0.993 2.813,-0.606 4.136,0.062 1.851,0.967 3.577,2.545 4.229,4.713 0.385,1.264 0.293,2.734 -0.223,3.92 -0.512,1.197 -0.512,2.623 0.242,3.658 C -0.72,-1.602 -0.317,-0.807 0,0" /></g></g></g></g></svg>