<?xml version="1.0" encoding="UTF-8" standalone="no"?>
<svg
   xmlns:dc="http://purl.org/dc/elements/1.1/"
   xmlns:cc="http://creativecommons.org/ns#"
   xmlns:rdf="http://www.w3.org/1999/02/22-rdf-syntax-ns#"
   xmlns:svg="http://www.w3.org/2000/svg"
   xmlns="http://www.w3.org/2000/svg"
   viewBox="0 0 112.47987 115.69853"
   height="115.69853"
   width="112.47987"
   xml:space="preserve"
   id="svg2"
   version="1.1"><metadata
     id="metadata8"><rdf:RDF><cc:Work
         rdf:about=""><dc:format>image/svg+xml</dc:format><dc:type
           rdf:resource="http://purl.org/dc/dcmitype/StillImage" /></cc:Work></rdf:RDF></metadata><defs
     id="defs6"><clipPath
       id="clipPath18"
       clipPathUnits="userSpaceOnUse"><path
         id="path16"
         d="M 0,86.774 H 84.36 V 0 H 0 Z" /></clipPath></defs><g
     transform="matrix(1.3333333,0,0,-1.3333333,0,115.69853)"
     id="g10"><g
       id="g12"><g
         clip-path="url(#clipPath18)"
         id="g14"><g
           transform="translate(42.1777,48.1987)"
           id="g20"><path
             id="path22"
             style="fill:#f8c890;fill-opacity:1;fill-rule:nonzero;stroke:none"
             d="M 0,0 C 10,0 18.038,8.073 18.038,18.096 18.038,28.091 10,36.172 0,36.172 -9.995,36.172 -18.074,28.091 -18.074,18.096 -18.074,8.073 -9.995,0 0,0" /></g><g
           transform="translate(41.9653)"
           id="g24"><path
             id="path26"
             style="fill:#009588;fill-opacity:1;fill-rule:nonzero;stroke:none"
             d="m 0,0 h 42.395 v 15.057 c 0,14.045 -28.125,21.097 -42.183,21.097" /></g><g
           transform="translate(42.1777,36.1543)"
           id="g28"><path
             id="path30"
             style="fill:#009b66;fill-opacity:1;fill-rule:nonzero;stroke:none"
             d="M 0,0 C -14.038,0 -42.178,-7.053 -42.178,-21.098 V -36.154 H -0.212" /></g></g></g></g></svg>